<svg width="96" height="96" viewBox="0 0 96 96" fill="none" xmlns="http://www.w3.org/2000/svg">
  <rect width="96" height="96" rx="48" fill="#FFFFFF"/>
  <path d="M25 54L31.5 36.5C33.2 31.9 37.6 29 42.5 29H53.5C58.4 29 62.8 31.9 64.5 36.5L71 54" fill="#FFFDF9"/>
  <path d="M25 54L31.5 36.5C33.2 31.9 37.6 29 42.5 29H53.5C58.4 29 62.8 31.9 64.5 36.5L71 54" stroke="#B99A70" stroke-width="3" stroke-linejoin="round"/>
  <path d="M34 53H62C68.075 53 73 57.925 73 64V68H23V64C23 57.925 27.925 53 34 53Z" fill="#FFFDF9" stroke="#B99A70" stroke-width="3"/>
  <path d="M37 38H59L63 52H33L37 38Z" fill="#E9DDC8"/>
  <circle cx="36" cy="69" r="6" fill="#8D6A43"/>
  <circle cx="60" cy="69" r="6" fill="#8D6A43"/>
  <circle cx="36" cy="69" r="2" fill="#FFFFFF"/>
  <circle cx="60" cy="69" r="2" fill="#FFFFFF"/>
  <path d="M29 61H37" stroke="#D8C09D" stroke-width="3" stroke-linecap="round"/>
  <path d="M59 61H67" stroke="#D8C09D" stroke-width="3" stroke-linecap="round"/>
</svg>
