<svg width="128" height="128" viewBox="0 0 128 128" fill="none" xmlns="http://www.w3.org/2000/svg">
  <circle cx="64" cy="64" r="58" fill="#EAF4FF"/>
  <circle cx="50" cy="50" r="14" fill="#3182F6"/>
  <circle cx="82" cy="54" r="12" fill="#3182F6" opacity=".82"/>
  <path d="M26 88c3.1-15.5 12.3-24 24-24s20.9 8.5 24 24c.7 3.5-2 6.7-5.6 6.7H31.6c-3.6 0-6.3-3.2-5.6-6.7Z" fill="#3182F6"/>
  <path d="M68 91c2.1-12.5 9.5-19.4 19.1-19.4 9.5 0 16.7 6.8 18.9 19.4.6 3.2-1.9 6.1-5.2 6.1H73.2c-3.3 0-5.8-2.9-5.2-6.1Z" fill="#3182F6" opacity=".82"/>
</svg>
